<?xml version="1.0" encoding="UTF-8"?>
<!-- Generator: visioncortex VTracer 0.6.2 -->
<svg version="1.1" xmlns="http://www.w3.org/2000/svg" width="1280" height="1280">
<path fill="#91c733" d="M0 0 C67.32 0 134.64 0 204 0 C206.70675571 2.70675571 206.26198093 4.13649758 206.28710938 7.92407227 C206.30052368 9.17039932 206.31393799 10.41672638 206.32775879 11.70082092 C206.33032181 12.37031328 206.33288483 13.03980564 206.33552551 13.72958565 C206.34383947 15.83910706 206.3643802 17.94820056 206.38806152 20.05760193 C206.43635429 24.55917017 206.46909054 29.06078352 206.5 33.5625 C205.77196503 64.26879615 205.77196503 64.26879615 212 94 C212.28746094 94.79277344 212.57492188 95.58554688 212.87109375 96.40234375 C216.97466992 107.18061642 222.08225687 116.59848141 229.2421875 125.6015625 C231 128 231 128 231 130 C231.66 130 232.32 130 233 130 C234.62109375 131.6796875 234.62109375 131.6796875 236.4375 133.875 C238.58400884 136.46193722 240.16776562 138.11184374 243 140 C243 140.66 243 141.32 243 142 C243.99 142.33 244.98 142.66 246 143 C246 143.66 246 144.32 246 145 C246.598125 145.12375 247.19625 145.2475 247.8125 145.375 C250 146 250 146 253 148 C253 148.66 253 149.32 253 150 C253.5775 150.12375 254.155 150.2475 254.75 150.375 C257.02335767 151.00648824 258.9253529 151.88858191 261 153 C261 153.66 261 154.32 261 155 C261.70640625 155.11601562 262.4128125 155.23203125 263.140625 155.3515625 C266.21774191 156.04937863 268.85978055 157.11339627 271.75 158.375 C284.35475214 163.71547496 295.98334702 166.31118215 309.72680664 166.25828552 C310.85550454 166.26196123 311.98420244 166.26563693 313.14710331 166.26942402 C316.90150125 166.27934576 320.65574939 166.27526484 324.41015625 166.27124023 C327.11311431 166.27563057 329.81605924 166.28082406 332.51901245 166.28707886 C338.32630929 166.29908164 344.13357878 166.30422955 349.94088745 166.30496025 C358.34909704 166.30629065 366.75724065 166.32144356 375.16542685 166.34045542 C388.82544566 166.37124677 402.48546615 166.39543586 416.14550781 166.41333008 C417.36996343 166.4149391 417.36996343 166.4149391 418.61915553 166.41658062 C427.72701854 166.42840163 436.83488223 166.43860841 445.94274902 166.44702148 C449.24666343 166.45009563 452.55057782 166.45318439 455.85449219 166.45629883 C456.66979357 166.45706417 457.48509496 166.45782951 458.32510245 166.45861804 C471.93653101 166.47171527 485.5479116 166.4963737 499.15930462 166.53004223 C507.54294543 166.55028568 515.92648352 166.56062807 524.31014895 166.55805302 C530.05646658 166.5570152 535.80270309 166.56669882 541.5489924 166.58469205 C544.85978405 166.59469979 548.17036072 166.59825523 551.48116684 166.59192467 C555.07869119 166.58576806 558.67571268 166.59804319 562.27319336 166.61473083 C563.30755052 166.60851902 564.34190767 166.6023072 565.40760899 166.59590715 C575.0947177 166.67747973 585.55050838 168.30911241 593 175 C603.06645537 187.03325837 604.16179839 195.73582677 604.1328125 211 C604.13376923 212.11689209 604.13472595 213.23378418 604.13571167 214.38452148 C604.13638844 216.72753964 604.13456947 219.07055973 604.13037109 221.41357422 C604.12497507 225.01664356 604.13035377 228.61959054 604.13671875 232.22265625 C604.13605867 234.50260444 604.13477897 236.78255256 604.1328125 239.0625 C604.13483673 240.14466797 604.13686096 241.22683594 604.13894653 242.34179688 C604.13579437 243.33373047 604.13264221 244.32566406 604.12939453 245.34765625 C604.12820114 246.66262085 604.12820114 246.66262085 604.12698364 248.00415039 C604 250 604 250 603 251 C600.01088804 251.10377021 597.04459412 251.14157294 594.05485535 251.13803101 C593.10439388 251.14085229 592.15393242 251.14367357 591.17466909 251.14658034 C587.9630363 251.15496853 584.7514378 251.15626825 581.53979492 251.15771484 C579.24700319 251.16238045 576.9542124 251.16752359 574.66142273 251.17311096 C569.70739516 251.18441928 564.7533737 251.19284067 559.79933739 251.19923019 C551.95118845 251.20989909 544.10308283 251.23014558 536.25495911 251.25234985 C533.56796184 251.25983102 530.88096438 251.26724475 528.19396687 251.27463722 C527.18639189 251.27741307 527.18639189 251.27741307 526.15846187 251.280245 C518.50335048 251.30119268 510.84823434 251.320005 503.19311523 251.33789062 C502.14315517 251.3403479 502.14315517 251.3403479 501.07198379 251.34285481 C489.77561076 251.36903484 478.47923449 251.38773309 467.18284412 251.40448253 C455.56614973 251.42198356 443.94952142 251.45110734 432.33287698 251.4893719 C425.81865783 251.51035408 419.30452837 251.52588647 412.79027367 251.52817917 C406.64496847 251.53034414 400.49984928 251.54640001 394.35460091 251.57256889 C392.1134939 251.57969629 389.87236419 251.58189524 387.63124847 251.57846642 C369.59557141 251.55530611 352.42523461 253.17383649 335 258 C333.13021484 258.4640625 333.13021484 258.4640625 331.22265625 258.9375 C325.15122205 260.45161998 319.37025542 261.94783823 313.87890625 265.0078125 C311.68552099 266.16606584 309.44775671 267.00621001 307.125 267.875 C302.61840109 269.63635774 298.65420143 271.87925542 294.55859375 274.44140625 C291.965472 276.02103309 289.32064474 277.41633393 286.625 278.8125 C278.90644171 282.97285766 272.02190291 288.36977536 265.375 294.0625 C263 296 263 296 261 296 C260.67 296.99 260.34 297.98 260 299 C259.34 299 258.68 299 258 299 C258 299.66 258 300.32 258 301 C256.3203125 302.62109375 256.3203125 302.62109375 254.125 304.4375 C251.53806278 306.58400884 249.88815626 308.16776562 248 311 C247.34 311 246.68 311 246 311 C245.67 311.99 245.34 312.98 245 314 C244.34 314 243.68 314 243 314 C242.731875 314.7425 242.46375 315.485 242.1875 316.25 C241.04723249 318.89061949 239.90619694 320.85552844 238 323 C237.34 323 236.68 323 236 323 C235.62875 323.7734375 235.62875 323.7734375 235.25 324.5625 C233.60418384 327.77184151 231.8023904 330.87585664 230 334 C229.34 334 228.68 334 228 334 C227.88914063 334.55945313 227.77828125 335.11890625 227.6640625 335.6953125 C226.89633217 338.35978835 225.74551994 340.46376439 224.375 342.875 C206.5319717 375.05235559 200.83592458 405.20992877 200.87060547 441.66210938 C200.86924888 444.05817186 200.8674675 446.45423414 200.86529541 448.85029602 C200.86122257 454.65999966 200.86179983 460.46968877 200.86470805 466.27939284 C200.86697476 471.00488174 200.86726913 475.73036703 200.86618423 480.45585632 C200.86595439 481.46816575 200.86595439 481.46816575 200.86571989 482.50092587 C200.86540014 483.87230369 200.86507592 485.2436815 200.8647473 486.61505932 C200.86190192 499.44723878 200.86516474 512.27941108 200.87054767 525.11158937 C200.87501485 536.10060093 200.87423865 547.08960192 200.86962891 558.07861328 C200.86426649 570.86771331 200.86217652 583.65680707 200.86524117 596.44590807 C200.86555969 597.8119866 200.86587406 599.17806514 200.86618423 600.54414368 C200.86633851 601.21612229 200.86649279 601.88810091 200.86665174 602.58044252 C200.86751189 607.29530367 200.86606485 612.01016083 200.86370468 616.72502136 C200.86080681 623.08131316 200.86283681 629.43758508 200.86859894 635.79387474 C200.86991627 638.12060195 200.86954994 640.44733085 200.86733627 642.77405739 C199.65933428 660.2893544 199.65933428 660.2893544 203 677 C203.103125 678.27875 203.20625 679.5575 203.3125 680.875 C203.92262717 686.89879527 205.97866637 692.326484 208 698 C208.46130069 699.43655051 208.91987531 700.8739809 209.375 702.3125 C212.6519188 712.05469103 216.19587413 721.44916408 221.8984375 730.046875 C223 732 223 732 223 735 C223.66 735 224.32 735 225 735 C226.4453125 737.0546875 226.4453125 737.0546875 228.125 739.875 C231.69097424 745.62918571 235.62613062 750.83981703 240 756 C240.68835938 756.81210937 241.37671875 757.62421875 242.0859375 758.4609375 C251.44298043 769.52438037 251.44298043 769.52438037 263 778 C263 778.66 263 779.32 263 780 C263.73089844 780.26425781 264.46179688 780.52851562 265.21484375 780.80078125 C268.00591512 782.0025469 270.12492351 783.38509573 272.5625 785.1875 C284.80806378 793.93952998 297.66932221 800.50219216 312 805 C313.52176621 805.51810133 315.04268375 806.03870619 316.5625 806.5625 C333.03365928 811.98450083 349.31035925 814.51976074 366.61669922 814.33618164 C369.02735068 814.31222823 371.43691279 814.3157028 373.84765625 814.32226562 C381.78587727 814.30781918 389.26123442 813.89112527 397 812 C398.44546441 811.74849565 399.89348717 811.51123252 401.34375 811.2890625 C408.50609387 810.15496847 415.14027421 808.94749172 421.80859375 805.96875 C424.03030403 804.98660357 426.24708131 804.23076679 428.5625 803.5 C439.1328896 800.03792118 450.08033652 794.97913474 459.30078125 788.78125 C462 787 462 787 464 787 C464 786.34 464 785.68 464 785 C464.99 785 465.98 785 467 785 C467 784.34 467 783.68 467 783 C471.38461538 780 471.38461538 780 474 780 C474.33 779.01 474.66 778.02 475 777 C476.63506539 775.54309639 478.33332325 774.15635814 480.0625 772.8125 C487.79513931 766.61839616 494.17548973 760.03288649 500.23828125 752.19921875 C501.74618535 750.31684622 503.17716601 748.57774707 505 747 C505.66 747 506.32 747 507 747 C507 746.34 507 745.68 507 745 C507.66 745 508.32 745 509 745 C509.26804443 744.40977051 509.53608887 743.81954102 509.81225586 743.21142578 C511.00948994 740.98233096 512.26251195 739.44125218 514.00390625 737.6171875 C514.86725586 736.70259766 514.86725586 736.70259766 515.74804688 735.76953125 C516.34681641 735.14433594 516.94558594 734.51914062 517.5625 733.875 C518.75332327 732.62431717 519.94222111 731.37179738 521.12890625 730.1171875 C521.65556885 729.56659668 522.18223145 729.01600586 522.72485352 728.44873047 C524.10237804 727.00795511 524.10237804 727.00795511 525 725 C525.66 725 526.32 725 527 725 C527 724.34 527 723.68 527 723 C527.66 723 528.32 723 529 723 C529.33 722.01 529.66 721.02 530 720 C530.66 720 531.32 720 532 720 C532.268125 719.4225 532.53625 718.845 532.8125 718.25 C534.02929189 715.94449957 535.30333879 713.97943808 537 712 C537.66 712 538.32 712 539 712 C539 711.34 539 710.68 539 710 C540.19287209 708.8351871 541.38856086 707.67311563 542.59847832 706.52601814 C544.10831973 704.88205828 545.08760222 703.23423345 546.18092346 701.29185486 C550.10135245 695.07751555 554.37149628 690.84987545 561.6923027 689.13518143 C572.38876349 687.61846451 583.35200773 688.03936856 594.12272716 688.2156384 C598.91196311 688.28012336 603.70103922 688.26497041 608.49061584 688.26072693 C616.52307771 688.26544662 624.55340293 688.32829703 632.58520508 688.42895508 C641.86087534 688.54473136 651.13406873 688.57960097 660.41039938 688.5689798 C669.35844856 688.5596162 678.3056798 688.59591581 687.25351143 688.65690422 C691.05206005 688.682676 694.85027554 688.69459978 698.64890862 688.69568062 C703.11918283 688.69983305 707.58729277 688.74468877 712.05690384 688.82073784 C713.69382136 688.84244872 715.33098145 688.85075461 716.96803093 688.84448242 C729.29064196 688.81037943 729.29064196 688.81037943 733.56689644 691.78642082 C738 696.66879277 738 696.66879277 738 700 C738.66 700 739.32 700 740 700 C741.9453125 702.1171875 741.9453125 702.1171875 744.125 704.875 C744.84945312 705.77992188 745.57390625 706.68484375 746.3203125 707.6171875 C748 710 748 710 748 712 C748.99 712.33 749.98 712.66 751 713 C752.50114368 714.65268771 753.92973667 716.37206686 755.3125 718.125 C758.00027475 721.50228559 760.69662737 724.83498154 763.5625 728.0625 C766 731 766 731 766 733 C766.66 733 767.32 733 768 733 C769.69140625 734.86328125 769.69140625 734.86328125 771.5625 737.3125 C772.18253906 738.11300781 772.80257812 738.91351562 773.44140625 739.73828125 C775 742 775 742 776 745 C776.66 745 777.32 745 778 745 C779.9453125 747.1171875 779.9453125 747.1171875 782.125 749.875 C782.84945312 750.77992188 783.57390625 751.68484375 784.3203125 752.6171875 C786 755 786 755 786 757 C786.66 757 787.32 757 788 757 C789.4453125 758.50390625 789.4453125 758.50390625 791.125 760.5625 C794.29312862 764.31756613 797.69430236 767.45265657 801.49609375 770.5546875 C801.99238281 771.03164063 802.48867188 771.50859375 803 772 C803 772.66 803 773.32 803 774 C803.53753906 774.23460937 804.07507813 774.46921875 804.62890625 774.7109375 C807.66409309 776.36103908 810.24995674 778.47553051 812.9375 780.625 C827.58947507 792.06861921 843.61855458 799.67521528 861 806 C861.72960937 806.28617188 862.45921875 806.57234375 863.2109375 806.8671875 C870.16391518 809.45124434 877.49540978 810.42772313 884.78857422 811.60327148 C886.26701623 811.86850313 887.7384998 812.17581377 889.19970703 812.52368164 C897.08226569 814.36865852 904.95037557 814.35180459 913 814.3125 C914.09649872 814.31076279 914.09649872 814.31076279 915.21514893 814.30899048 C926.38768853 814.27395677 937.11026544 813.62897246 948 811 C949.51400391 810.64035156 949.51400391 810.64035156 951.05859375 810.2734375 C953.73150025 809.58341057 956.36133518 808.81039112 959 808 C960.03382813 807.70222656 961.06765625 807.40445313 962.1328125 807.09765625 C980.50868259 801.68915548 998.08544142 793.12592823 1013.20703125 781.26953125 C1015 780 1015 780 1017 780 C1017 779.34 1017 778.68 1017 778 C1018.57633385 776.60946976 1020.21404915 775.28827212 1021.875 774 C1029.57712446 767.82836221 1036.70163642 761.38907567 1042 753 C1042.66 753 1043.32 753 1044 753 C1044.2371875 752.48953125 1044.474375 751.9790625 1044.71875 751.453125 C1046.46895333 748.10212593 1048.47168524 744.93827751 1050.5 741.75 C1050.90347656 741.1003125 1051.30695313 740.450625 1051.72265625 739.78125 C1052.76024041 738.15124981 1053.87453662 736.57060934 1055 735 C1055.66 735 1056.32 735 1057 735 C1057.13051758 734.41154297 1057.26103516 733.82308594 1057.39550781 733.21679688 C1058.34078036 729.75028852 1060.10610909 726.67691563 1061.75 723.5 C1075.77288853 695.77881238 1079.15891615 669.28452962 1079.12939453 638.53735352 C1079.13075115 636.16261773 1079.13253256 633.78788215 1079.13470459 631.41314697 C1079.13924808 624.98963058 1079.137502 618.56613031 1079.1343255 612.14261365 C1079.132542 608.12422389 1079.13288514 604.10583616 1079.13381577 600.08744621 C1079.133969 599.41841271 1079.13412223 598.7493792 1079.13428011 598.06007196 C1079.13459986 596.70053387 1079.13492408 595.34099579 1079.1352527 593.9814577 C1079.13809809 581.25988709 1079.13483536 568.5383237 1079.12945233 555.81675427 C1079.12498618 544.92527723 1079.1257605 534.03381084 1079.13037109 523.14233398 C1079.13573527 510.46492571 1079.13782241 497.78752376 1079.13475883 485.11011451 C1079.13444031 483.75553286 1079.13412594 482.40095121 1079.13381577 481.04636955 C1079.13366149 480.38005987 1079.13350721 479.71375018 1079.13334826 479.0272493 C1079.13248856 474.35493657 1079.13398367 469.68262911 1079.13629532 465.01031685 C1079.13919537 458.70901386 1079.13715923 452.40773089 1079.13140106 446.10643005 C1079.13008483 443.80108613 1079.13044815 441.4957405 1079.13266373 439.19039726 C1080.37779419 421.1623027 1080.37779419 421.1623027 1077 404 C1076.896875 402.741875 1076.79375 401.48375 1076.6875 400.1875 C1076.05411712 393.86388701 1073.95341579 388.01714822 1072 382 C1071.67 380.824375 1071.34 379.64875 1071 378.4375 C1070.67 377.303125 1070.34 376.16875 1070 375 C1069.77183594 374.17886719 1069.54367187 373.35773438 1069.30859375 372.51171875 C1066.16643614 362.09891843 1061.01858361 352.36790941 1055.22265625 343.18359375 C1054 341 1054 341 1054 338 C1053.34 338 1052.68 338 1052 338 C1051.525625 337.0925 1051.05125 336.185 1050.5625 335.25 C1046.50248388 328.13047174 1041.27311622 321.57955944 1035.9375 315.375 C1034 313 1034 313 1034 311 C1033.34 311 1032.68 311 1032 311 C1032 310.34 1032 309.68 1032 309 C1031.01 308.67 1030.02 308.34 1029 308 C1029 307.34 1029 306.68 1029 306 C1028.34 306 1027.68 306 1027 306 C1027 305.34 1027 304.68 1027 304 C1026.01 303.67 1025.02 303.34 1024 303 C1024 302.34 1024 301.68 1024 301 C1023.34 301 1022.68 301 1022 301 C1022 300.34 1022 299.68 1022 299 C1021.42765625 298.731875 1020.8553125 298.46375 1020.265625 298.1875 C1017.92115366 296.95867364 1015.87595062 295.57477824 1013.75 294 C1012.69039062 293.2265625 1012.69039062 293.2265625 1011.609375 292.4375 C1011.07828125 291.963125 1010.5471875 291.48875 1010 291 C1010 290.34 1010 289.68 1010 289 C1009.2265625 288.6596875 1009.2265625 288.6596875 1008.4375 288.3125 C1006.35601645 287.19170117 1004.58752537 286.01578433 1002.6875 284.625 C999.86934 282.57705746 996.98924804 280.78311052 993.9375 279.09375 C991.65284528 277.80402556 989.42471667 276.43279521 987.1875 275.0625 C979.28481418 270.33042418 971.54239134 266.68751665 962.75 263.90625 C960.51584496 263.16999436 958.44206227 262.36090846 956.3125 261.375 C952.82859754 259.92885181 949.51055146 259.14271672 945.8203125 258.4296875 C944 258 944 258 943 257 C940.06415983 256.47627724 937.13619913 256.00176381 934.1875 255.5625 C932.55589668 255.31441229 930.92438753 255.06570461 929.29296875 254.81640625 C928.46989888 254.6952114 927.64682901 254.57401655 926.79881763 254.44914913 C925.0787162 254.1731104 923.36326481 253.86211985 921.66061687 253.49342442 C910.94168498 251.29712692 900.06087824 251.69916476 889.1730957 251.69702148 C886.8675558 251.68935113 884.56201867 251.68080303 882.25648499 251.67144775 C877.31297314 251.65324089 872.36949858 251.64115698 867.42595863 251.63390923 C859.61573332 251.62239033 851.80559082 251.59692376 843.9954071 251.56959534 C833.0549729 251.53274965 822.11453942 251.50200251 811.17407227 251.47680664 C810.48131674 251.47520934 809.78856121 251.47361204 809.07481309 251.47196633 C808.03430974 251.46956798 808.03430974 251.46956798 806.97278613 251.46712118 C797.11246678 251.44437713 787.25215457 251.41974325 777.3918457 251.39282227 C776.34898738 251.38997805 776.34898738 251.38997805 775.28506122 251.38707637 C763.70994842 251.35534477 752.13485045 251.31959955 740.55975598 251.28178078 C732.78756234 251.25681144 725.01537989 251.23740261 717.24316084 251.22239864 C712.42593856 251.21223256 707.60873377 251.1980883 702.79152489 251.18292236 C700.54887171 251.17674084 698.30621301 251.17229621 696.06355286 251.16966438 C693.01668575 251.16588265 689.96989684 251.15609605 686.92304993 251.14476013 C686.0236663 251.14514626 685.12428268 251.1455324 684.19764501 251.14593023 C678.11406587 251.11406587 678.11406587 251.11406587 677 250 C676.89226372 248.17739185 676.85373039 246.35065605 676.84228516 244.52490234 C676.82689194 242.7657399 676.82689194 242.7657399 676.81118774 240.97103882 C676.80388641 239.68895538 676.79658508 238.40687195 676.7890625 237.0859375 C676.76816964 235.0725399 676.74725884 233.05914232 676.72536278 231.04575539 C676.67236123 226.07679764 676.62838305 221.1078238 676.59863281 216.13867188 C676.57737857 212.68135836 676.54181683 209.22441868 676.49787521 205.76732254 C676.47723517 203.83636827 676.4717155 201.90527073 676.46670532 199.97421265 C676.30256003 187.91676818 674.3160153 176.29780476 670 165 C669.73703125 164.24976563 669.4740625 163.49953125 669.203125 162.7265625 C666.97647828 156.69117797 663.99735751 151.25286474 660.72973633 145.73364258 C659.21112994 143.16517128 657.94748437 140.84245312 657 138 C656.34 138 655.68 138 655 138 C654.67 136.68 654.34 135.36 654 134 C653.34 134 652.68 134 652 134 C647 128.52380952 647 128.52380952 647 126 C646.40832031 125.731875 645.81664062 125.46375 645.20703125 125.1875 C642.98085245 123.9896976 641.50763525 122.74063509 639.6875 121 C630.94454874 113.2048827 621.09029823 106.80529499 610 103 C608.824375 102.46375 607.64875 101.9275 606.4375 101.375 C602.93836673 99.97534669 599.60342906 99.15282429 595.91796875 98.4296875 C594 98 594 98 592 97 C575.92916261 94.41462997 559.44664821 94.71569234 543.22729492 94.74462891 C540.61799511 94.74187175 538.00869614 94.73818749 535.3993988 94.73365784 C529.82856067 94.72511186 524.25775425 94.72319516 518.68691063 94.72560501 C510.62305202 94.72873092 502.55926222 94.71696808 494.49542109 94.70105521 C481.39270552 94.67522373 468.2899899 94.65513377 455.18725586 94.64160156 C454.40655416 94.64079119 453.62585246 94.63998082 452.82149313 94.6391459 C441.7128709 94.62789506 430.60425371 94.62263472 419.49562655 94.61975877 C418.71098336 94.61955478 417.92634017 94.61935079 417.11791992 94.61914062 C416.33424764 94.61894069 415.55057537 94.61874075 414.74315544 94.61853476 C401.66700405 94.61479982 388.59092853 94.59571239 375.51481515 94.56404626 C367.47051183 94.5451774 359.42640341 94.53914168 351.38208411 94.54986344 C345.22740924 94.55693818 339.07293773 94.54339044 332.91829872 94.52224541 C330.39841332 94.51692268 327.87850277 94.51842152 325.35862732 94.52728081 C321.91630437 94.53840736 318.4749052 94.52496356 315.03263855 94.50552368 C314.03886851 94.51464834 313.04509847 94.523773 312.02121419 94.53317416 C304.18245989 94.4471676 298.49234025 92.32822683 292 88 C292 87.34 292 86.68 292 86 C291.360625 85.731875 290.72125 85.46375 290.0625 85.1875 C288 84 288 84 287 81 C286.34 81 285.68 81 285 81 C278.56087023 72.32117293 278.57324103 62.57017871 278.671875 52.19140625 C278.67493857 50.77416688 278.67681014 49.35692449 278.67755127 47.93968201 C278.68212559 44.98872113 278.69644823 42.03803754 278.71875 39.0871582 C278.74721254 35.3019474 278.75798291 31.51695233 278.7624321 27.73164463 C278.76658098 24.8140599 278.77639107 21.89651875 278.78830719 18.97895622 C278.79400537 17.58227828 278.79876557 16.18559619 278.80257416 14.78891182 C278.80942854 12.84565848 278.823957 10.90243674 278.83886719 8.95922852 C278.84910919 7.30117943 278.84910919 7.30117943 278.85955811 5.6096344 C279 3 279 3 280 1 C283.45633592 -0.15211197 286.11748387 -0.12465603 289.76538867 -0.1241985 C290.80965612 -0.12611563 290.80965612 -0.12611563 291.87501988 -0.12807148 C294.22992325 -0.13115713 296.58476074 -0.12705779 298.93966198 -0.12304783 C300.6434704 -0.12378691 302.34727867 -0.12496489 304.05108652 -0.12654433 C308.76779469 -0.12962857 313.4844815 -0.12642567 318.20118809 -0.12226619 C323.31938752 -0.11884503 328.43758467 -0.12120029 333.55578452 -0.12284368 C342.53749287 -0.12492216 351.5191946 -0.12326559 360.50090218 -0.11920547 C373.85649644 -0.11318489 387.21208651 -0.11286832 400.56768188 -0.11374746 C423.03096444 -0.11506323 445.49424376 -0.11172016 467.95752525 -0.10573006 C490.20838116 -0.09981076 512.45923586 -0.0959556 534.71009254 -0.09487724 C535.40071778 -0.09484283 536.09134301 -0.09480842 536.80289629 -0.09477296 C543.11054848 -0.09445977 549.41820068 -0.09417208 555.72585288 -0.09391499 C571.40707044 -0.09327553 587.08828797 -0.09231617 602.7695055 -0.09113979 C603.48365108 -0.09108648 604.19779666 -0.09103316 604.93358301 -0.09097823 C639.68594707 -0.08835571 674.43831033 -0.08204775 709.19067383 -0.07543945 C721.25288899 -0.07314783 733.31510416 -0.07087248 745.37731934 -0.06866455 C746.12540313 -0.0685276 746.87348692 -0.06839065 747.64423992 -0.06824955 C782.40677812 -0.061908 817.16931646 -0.05819147 851.93185509 -0.05513173 C854.20588012 -0.05493116 856.47990515 -0.05472886 858.75393017 -0.05452599 C882.45211354 -0.05241264 906.15029692 -0.05042554 929.8484803 -0.04849322 C930.86404305 -0.0484104 930.86404305 -0.0484104 931.90012221 -0.04832591 C933.72233475 -0.04817742 935.54454728 -0.04802922 937.36675981 -0.04788104 C1051.57784139 -0.03848857 1165.7889188 -0.01841949 1280 0 C1280 296.34 1280 592.68 1280 898 C857.6 898 435.2 898 0 898 C0 601.66 0 305.32 0 0 Z " transform="translate(0,77)"/>
<path fill="#91c733" d="M0 0 C2.14347818 -0.00115467 4.28695617 -0.00274452 6.43043375 -0.00472724 C12.27243662 -0.00887297 18.114423 -0.00685154 23.95642591 -0.00374103 C30.27553239 -0.00146765 36.59463614 -0.00497615 42.91374207 -0.00772095 C54.56097403 -0.01190107 66.20819936 -0.01155238 77.85543148 -0.00880948 C88.61783968 -0.00628759 99.38024598 -0.00564017 110.14265442 -0.00683212 C110.85831884 -0.00690851 111.57398326 -0.00698489 112.31133448 -0.00706359 C115.21691414 -0.00737496 118.1224938 -0.00769337 121.02807345 -0.00802336 C148.24924244 -0.01107798 175.47040811 -0.00831584 202.69157658 -0.00292646 C226.84219703 0.00181866 250.99281221 0.00139401 275.14343262 -0.00338745 C302.31684433 -0.00874948 329.49025312 -0.0108613 356.66366529 -0.00777519 C359.56375599 -0.0074545 362.46384668 -0.00714166 365.36393738 -0.00683212 C366.4349441 -0.00671351 366.4349441 -0.00671351 367.52758731 -0.00659249 C378.27960756 -0.00545807 389.03162568 -0.00677959 399.78364563 -0.00931168 C412.01697659 -0.01217836 424.25029975 -0.01134465 436.4836303 -0.00603093 C442.71975948 -0.00341105 448.95587798 -0.00235973 455.19200706 -0.00568008 C460.91004502 -0.00867844 466.62806248 -0.00699175 472.3460986 -0.00170253 C474.40508637 -0.00059337 476.46407591 -0.00113583 478.52306253 -0.00357832 C488.11350604 -0.01407475 497.67955195 0.05719942 507.25821686 0.56924629 C507.98592028 0.60756577 508.71362371 0.64588524 509.46337876 0.68536591 C514.98433118 1.01905898 520.14246215 1.88725586 525.4407959 3.43948364 C526.59031738 3.74015747 526.59031738 3.74015747 527.76306152 4.04690552 C532.78443406 5.43433352 536.79425158 7.44937125 541.2532959 10.12698364 C543.25951276 10.93030212 543.25951276 10.93030212 545.0657959 11.43948364 C550.42613741 13.34722608 554.73185898 16.74667128 559.2532959 20.12698364 C560.37864746 20.96036255 560.37864746 20.96036255 561.5267334 21.81057739 C563.44352921 23.23926721 565.34979726 24.68065717 567.2532959 26.12698364 C568.35544434 26.89268677 568.35544434 26.89268677 569.4798584 27.67385864 C570.06509277 28.15338989 570.65032715 28.63292114 571.2532959 29.12698364 C571.2532959 29.78698364 571.2532959 30.44698364 571.2532959 31.12698364 C572.2432959 31.45698364 573.2332959 31.78698364 574.2532959 32.12698364 C574.2532959 32.78698364 574.2532959 33.44698364 574.2532959 34.12698364 C574.9132959 34.12698364 575.5732959 34.12698364 576.2532959 34.12698364 C576.2532959 34.78698364 576.2532959 35.44698364 576.2532959 36.12698364 C576.9132959 36.12698364 577.5732959 36.12698364 578.2532959 36.12698364 C579.7611084 37.80667114 579.7611084 37.80667114 581.3782959 40.00198364 C581.91712402 40.72128052 582.45595215 41.44057739 583.0111084 42.18167114 C584.2532959 44.12698364 584.2532959 44.12698364 584.2532959 46.12698364 C584.9132959 46.12698364 585.5732959 46.12698364 586.2532959 46.12698364 C600.63178698 70.7301795 600.63178698 70.7301795 602.78191185 81.75032234 C603.14487348 83.58033096 603.55099314 85.40181719 603.97524452 87.2185955 C606.57240482 99.2397904 606.67847854 110.9411333 606.64147949 123.20169067 C606.64555282 125.48672739 606.65089894 127.77176214 606.65740967 130.05679321 C606.67099698 136.21779613 606.66582069 142.37864704 606.65627241 148.53965235 C606.64863293 155.01130209 606.6557331 161.48293954 606.66043091 167.95458984 C606.66622311 179.51062948 606.65695097 191.06660025 606.6416529 202.62262903 C606.62824609 213.07317049 606.63058677 223.52361195 606.64440918 233.97415161 C606.66050861 246.15170748 606.66641644 258.32919228 606.65757239 270.50675857 C606.65291228 276.93785047 606.65222529 283.36887369 606.66218185 289.79996109 C606.67089023 295.8461208 606.66475912 301.89209284 606.64749908 307.93823242 C606.64355522 310.148016 606.64463196 312.35781555 606.65128708 314.56759262 C606.68294803 326.1544183 606.46429091 336.90695445 603.2532959 348.12698364 C603.04550192 348.85467516 602.83770794 349.58236668 602.62361717 350.33210945 C599.46654501 360.50519221 594.9593361 371.70325595 588.2532959 380.12698364 C587.5932959 380.12698364 586.9332959 380.12698364 586.2532959 380.12698364 C586.03028809 380.83467896 585.80728027 381.54237427 585.57751465 382.27151489 C583.96717779 385.74395219 581.75382451 388.15997919 579.0657959 390.81448364 C578.54259766 391.33341187 578.01939941 391.85234009 577.48034668 392.38699341 C561.60639994 407.60359058 540.35287207 417.76193346 518.2532959 418.12698364 C517.26974121 418.15405396 516.28618652 418.18112427 515.27282715 418.20901489 C512.26088489 418.25278156 509.2644017 418.20712714 506.2532959 418.12698364 C505.16403809 418.11022583 504.07478027 418.09346802 502.95251465 418.07620239 C479.07028074 417.12956798 458.34035244 404.60280112 441.8001709 387.97463989 C440.2532959 386.12698364 440.2532959 386.12698364 440.2532959 384.12698364 C439.5932959 384.12698364 438.9332959 384.12698364 438.2532959 384.12698364 C436.56188965 382.26370239 436.56188965 382.26370239 434.6907959 379.81448364 C434.07075684 379.01397583 433.45071777 378.21346802 432.81188965 377.38870239 C431.2532959 375.12698364 431.2532959 375.12698364 430.2532959 372.12698364 C429.5932959 372.12698364 428.9332959 372.12698364 428.2532959 372.12698364 C426.3079834 370.00979614 426.3079834 370.00979614 424.1282959 367.25198364 C423.40384277 366.34706177 422.67938965 365.44213989 421.9329834 364.50979614 C420.2532959 362.12698364 420.2532959 362.12698364 420.2532959 360.12698364 C419.2632959 359.79698364 418.2732959 359.46698364 417.2532959 359.12698364 C415.75215222 357.47429593 414.32355923 355.75491678 412.9407959 354.00198364 C410.25302115 350.62469805 407.55666853 347.2920021 404.6907959 344.06448364 C402.2532959 341.12698364 402.2532959 341.12698364 402.2532959 339.12698364 C401.5932959 339.12698364 400.9332959 339.12698364 400.2532959 339.12698364 C398.3079834 337.00979614 398.3079834 337.00979614 396.1282959 334.25198364 C395.40384277 333.34706177 394.67938965 332.44213989 393.9329834 331.50979614 C392.2532959 329.12698364 392.2532959 329.12698364 392.2532959 327.12698364 C391.5932959 327.12698364 390.9332959 327.12698364 390.2532959 327.12698364 C388.3079834 325.00979614 388.3079834 325.00979614 386.1282959 322.25198364 C385.40384277 321.34706177 384.67938965 320.44213989 383.9329834 319.50979614 C382.2532959 317.12698364 382.2532959 317.12698364 382.2532959 315.12698364 C381.5932959 315.12698364 380.9332959 315.12698364 380.2532959 315.12698364 C375.2532959 309.65079317 375.2532959 309.65079317 375.2532959 307.12698364 C374.5932959 307.12698364 373.9332959 307.12698364 373.2532959 307.12698364 C371.3079834 305.00979614 371.3079834 305.00979614 369.1282959 302.25198364 C368.40384277 301.34706177 367.67938965 300.44213989 366.9329834 299.50979614 C365.2532959 297.12698364 365.2532959 297.12698364 365.2532959 295.12698364 C362.55697455 294.22820986 360.97052936 293.99343808 358.20073795 293.96762276 C357.37311705 293.95761462 356.54549614 293.94760649 355.69279581 293.93729508 C354.78367408 293.93134036 353.87455235 293.92538565 352.93788147 293.91925049 C351.97189952 293.90922371 351.00591758 293.89919693 350.01066345 293.88886631 C346.75896589 293.85666302 343.50725624 293.8318011 340.25549316 293.80715942 C337.92972084 293.78616839 335.60395081 293.76492208 333.27818298 293.74343872 C312.03080598 293.55557241 290.78263999 293.45267128 269.53460789 293.37129402 C266.69026674 293.36020642 263.8459265 293.34891407 261.00158691 293.33743286 C259.94120379 293.33316606 259.94120379 293.33316606 258.85939877 293.32881306 C247.42146724 293.28138793 235.98446297 293.18511742 224.54703582 293.06986178 C212.79478427 292.95242052 201.04301357 292.88459087 189.29019016 292.86316288 C182.69497421 292.84909737 176.10163398 292.81269982 169.50699043 292.72192764 C163.29698622 292.63733206 157.08975697 292.61452935 150.87925148 292.63829041 C148.60561142 292.63631716 146.33186126 292.61222301 144.05873489 292.56385422 C131.41268725 291.9187429 131.41268725 291.9187429 120.30097771 296.94552231 C117.15961269 300.05957009 114.71467618 303.45995564 112.2532959 307.12698364 C110.07814884 310.04693794 110.07814884 310.04693794 108.2532959 312.12698364 C107.5932959 312.12698364 106.9332959 312.12698364 106.2532959 312.12698364 C105.9129834 312.93135864 105.9129834 312.93135864 105.5657959 313.75198364 C103.23097961 317.97688931 99.92954273 321.97591493 96.2532959 325.12698364 C95.5932959 325.12698364 94.9332959 325.12698364 94.2532959 325.12698364 C93.8820459 325.96229614 93.8820459 325.96229614 93.5032959 326.81448364 C92.02404772 329.55109278 90.3186215 331.80349234 88.2532959 334.12698364 C87.5932959 334.12698364 86.9332959 334.12698364 86.2532959 334.12698364 C85.99677246 334.71221802 85.74024902 335.29745239 85.47595215 335.90042114 C84.14767428 338.31932972 82.68804788 339.85897237 80.6907959 341.75198364 C78.11314201 344.17220323 78.11314201 344.17220323 76.2532959 347.12698364 C75.5932959 347.12698364 74.9332959 347.12698364 74.2532959 347.12698364 C73.9232959 348.11698364 73.5932959 349.10698364 73.2532959 350.12698364 C72.5932959 350.12698364 71.9332959 350.12698364 71.2532959 350.12698364 C71.04446777 350.65421021 70.83563965 351.18143677 70.6204834 351.72463989 C68.68256943 355.12983159 66.07134914 357.7390381 63.3782959 360.56448364 C62.31680158 361.68667168 61.25687676 362.81034664 60.1986084 363.93557739 C59.69361816 364.47166626 59.18862793 365.00775513 58.66833496 365.56008911 C57.37460594 366.99265516 56.17871731 368.51203735 54.9954834 370.03713989 C54.42056152 370.72678833 53.84563965 371.41643677 53.2532959 372.12698364 C52.5932959 372.12698364 51.9332959 372.12698364 51.2532959 372.12698364 C50.9129834 372.93135864 50.9129834 372.93135864 50.5657959 373.75198364 C48.23097961 377.97688931 44.92954273 381.97591493 41.2532959 385.12698364 C40.5932959 385.12698364 39.9332959 385.12698364 39.2532959 385.12698364 C38.9851709 385.76635864 38.7170459 386.40573364 38.4407959 387.06448364 C37.2532959 389.12698364 37.2532959 389.12698364 34.2532959 390.12698364 C33.9439209 390.74573364 33.6345459 391.36448364 33.3157959 392.00198364 C32.03523588 394.56310369 30.66162691 395.62177676 28.2532959 397.12698364 C27.5932959 397.12698364 26.9332959 397.12698364 26.2532959 397.12698364 C26.2532959 397.78698364 26.2532959 398.44698364 26.2532959 399.12698364 C23.6918302 401.42347013 22.77362018 402.12698364 19.2532959 402.12698364 C19.2532959 402.78698364 19.2532959 403.44698364 19.2532959 404.12698364 C3.45423048 412.89036512 3.45423048 412.89036512 -4.7467041 415.12698364 C-5.8192041 415.49823364 -6.8917041 415.86948364 -7.9967041 416.25198364 C-18.95296599 418.80844475 -30.55181705 418.35879007 -41.7467041 418.12698364 C-42.87205566 418.11022583 -43.99740723 418.09346802 -45.15686035 418.07620239 C-68.87051897 417.04772897 -89.37365381 403.73913054 -105.7857666 387.48635864 C-107.77234282 385.09613546 -108.77888637 383.06165677 -109.7467041 380.12698364 C-110.4067041 380.12698364 -111.0667041 380.12698364 -111.7467041 380.12698364 C-116.20080487 373.98790048 -119.45058693 366.93418214 -122.7467041 360.12698364 C-123.08186035 359.51596802 -123.4170166 358.90495239 -123.7623291 358.27542114 C-130.52485671 343.51593629 -130.18243437 326.93559433 -130.1348877 311.10574341 C-130.13896026 308.81424714 -130.14430597 306.52275284 -130.15081787 304.23126221 C-130.16441646 298.04733949 -130.15922353 291.86356805 -130.14968061 285.67964292 C-130.14204429 279.1835652 -130.14914069 272.68749977 -130.15383911 266.19142151 C-130.15963362 254.58765741 -130.15035488 242.98396184 -130.1350611 231.38020854 C-130.12166357 220.89106264 -130.12398659 210.40201641 -130.13781738 199.91287231 C-130.15392669 187.69025772 -130.15981872 175.46771398 -130.15098059 163.24508899 C-130.14632369 156.79044419 -130.14562426 150.3358678 -130.15559006 143.88122749 C-130.16431084 137.80963116 -130.15814502 131.73822141 -130.14090729 125.66664505 C-130.13696944 123.4496396 -130.13802961 121.23261821 -130.14469528 119.01561928 C-130.22708322 88.80851774 -123.12843203 58.76646027 -101.7467041 36.12698364 C-101.0867041 36.12698364 -100.4267041 36.12698364 -99.7467041 36.12698364 C-99.4785791 35.48760864 -99.2104541 34.84823364 -98.9342041 34.18948364 C-97.7467041 32.12698364 -97.7467041 32.12698364 -94.7467041 31.12698364 C-94.2517041 29.64198364 -94.2517041 29.64198364 -93.7467041 28.12698364 C-93.0867041 28.12698364 -92.4267041 28.12698364 -91.7467041 28.12698364 C-91.7467041 27.46698364 -91.7467041 26.80698364 -91.7467041 26.12698364 C-90.2857666 24.83792114 -90.2857666 24.83792114 -88.3717041 23.50198364 C-87.74521973 23.05596802 -87.11873535 22.60995239 -86.4732666 22.15042114 C-84.7467041 21.12698364 -84.7467041 21.12698364 -82.7467041 21.12698364 C-82.7467041 20.46698364 -82.7467041 19.80698364 -82.7467041 19.12698364 C-74.43086601 13.09357771 -64.79556582 8.47731006 -54.92248535 5.74417114 C-52.64204002 5.13960662 -52.64204002 5.13960662 -50.1217041 4.06448364 C-44.08248155 1.68058001 -38.05769088 0.78657411 -31.60587311 0.50992012 C-30.83251709 0.47229897 -30.05916107 0.43467783 -29.26237002 0.39591665 C-19.51187366 -0.03403448 -9.7578767 -0.01157538 0 0 Z M-3.7467041 65.12698364 C-4.0767041 83.93698364 -4.4067041 102.74698364 -4.7467041 122.12698364 C-23.2267041 122.45698364 -41.7067041 122.78698364 -60.7467041 123.12698364 C-62.19356034 126.02069612 -61.87401783 128.53108413 -61.87609863 131.76394653 C-61.87785095 132.44538223 -61.87960327 133.12681793 -61.88140869 133.8289032 C-61.88581727 136.08584118 -61.88289304 138.34270109 -61.8795166 140.59963989 C-61.88018985 142.16380325 -61.88116005 143.72796651 -61.88241577 145.29212952 C-61.88389133 148.57148229 -61.88174244 151.85080785 -61.8770752 155.13015747 C-61.87137328 159.34275251 -61.87466072 163.55528391 -61.88064766 167.76787663 C-61.88425308 170.99767033 -61.88311486 174.22744882 -61.88051987 177.45724297 C-61.87985079 179.01105189 -61.88067836 180.56486218 -61.88299942 182.11866951 C-61.88552615 184.28562225 -61.88168532 186.45247038 -61.87609863 188.61941528 C-61.87530304 189.85470474 -61.87450745 191.0899942 -61.87368774 192.36271667 C-62.06200346 195.03632206 -62.06200346 195.03632206 -60.7467041 196.12698364 C-58.99831575 196.25013534 -57.24505906 196.30486175 -55.49255371 196.33230591 C-54.37146713 196.35225113 -53.25038055 196.37219635 -52.09532166 196.39274597 C-50.8755513 196.40945847 -49.65578094 196.42617096 -48.39904785 196.44338989 C-46.5367025 196.47456154 -46.5367025 196.47456154 -44.63673401 196.50636292 C-41.33071287 196.56081973 -38.02468165 196.61102569 -34.71856689 196.65921021 C-31.34702919 196.7093822 -27.97558357 196.76509066 -24.60412598 196.82034302 C-17.98505859 196.92768403 -11.3659225 197.02942563 -4.7467041 197.12698364 C-4.73639664 197.83886337 -4.72608917 198.5507431 -4.71546936 199.28419495 C-4.61765512 205.97981191 -4.51516406 212.67533882 -4.40736485 219.37080288 C-4.3521053 222.81334104 -4.29868064 226.25588764 -4.24938965 229.69851685 C-4.19269609 233.65262891 -4.12812915 237.60659309 -4.06311035 241.56057739 C-4.04639786 242.80222153 -4.02968536 244.04386566 -4.01246643 245.32313538 C-3.9825486 247.03479637 -3.9825486 247.03479637 -3.95202637 248.78103638 C-3.92870995 250.29660378 -3.92870995 250.29660378 -3.90492249 251.8427887 C-4.0002568 254.09228253 -4.0002568 254.09228253 -2.7467041 255.12698364 C-0.58480279 255.23181405 1.58056404 255.26555207 3.74499512 255.27224731 C4.4230722 255.27560593 5.10114929 255.27896454 5.79977417 255.28242493 C8.05252897 255.29196242 10.30520964 255.29387954 12.5579834 255.29495239 C14.1187849 255.29816344 15.6795861 255.3015274 17.24038696 255.30503845 C20.51732074 255.31103701 23.79422811 255.31287765 27.07116699 255.31228638 C31.27355239 255.31218481 35.47576863 255.32582842 39.67811394 255.34305859 C42.90370463 255.35416991 46.12925434 255.35620584 49.35486221 255.35567665 C50.90423286 255.35685841 52.45360451 255.36129114 54.00295639 255.36900902 C56.16969427 255.37878992 58.33606401 255.37593839 60.50280762 255.36990356 C61.73667206 255.37132858 62.9705365 255.3727536 64.24179077 255.3742218 C67.4331805 255.35716482 67.4331805 255.35716482 70.2532959 253.12698364 C70.69228903 250.62420726 70.69228903 250.62420726 70.59387207 247.66751099 C70.59353218 245.95596329 70.59353218 245.95596329 70.59318542 244.20983887 C70.56995964 242.35511459 70.56995964 242.35511459 70.54626465 240.46292114 C70.54201981 239.20057648 70.53777496 237.93823181 70.53340149 236.63763428 C70.51942727 233.28037014 70.49246892 229.92371432 70.45928955 226.56661987 C70.42860942 223.14148216 70.4149006 219.71628164 70.39978027 216.29104614 C70.36664231 209.56952314 70.31639129 202.84828853 70.2532959 196.12698364 C70.96517563 196.12920425 71.67705536 196.13142487 72.4105072 196.13371277 C79.10603825 196.15371618 85.80156101 196.16895803 92.49711514 196.17879581 C95.93969938 196.18402346 99.38225902 196.19111895 102.8248291 196.2024231 C106.77884633 196.21532599 110.73285345 196.22021282 114.68688965 196.22463989 C115.92853378 196.22980118 117.17017792 196.23496246 118.44944763 196.24028015 C120.16110863 196.24039345 120.16110863 196.24039345 121.90734863 196.24050903 C122.9177269 196.24272964 123.92810516 196.24495026 124.96910095 196.24723816 C127.21910444 196.38415969 127.21910444 196.38415969 128.2532959 195.12698364 C128.35285784 192.95965104 128.38129308 190.78903305 128.38269043 188.61941528 C128.38444275 187.9397319 128.38619507 187.26004852 128.38800049 186.55976868 C128.39241893 184.30220014 128.38948074 182.0447093 128.3861084 179.78713989 C128.38678152 178.22394292 128.38775161 176.66074605 128.38900757 175.09754944 C128.39048459 171.81641649 128.38833013 168.53531071 128.38366699 165.25418091 C128.37797439 161.04277663 128.38124569 156.83143614 128.38723946 152.62003422 C128.39084896 149.39019793 128.3897046 146.16037682 128.38711166 142.93054008 C128.38644323 141.37755768 128.38726792 139.82457391 128.38959122 138.27159309 C128.39212358 136.10234033 128.38826867 133.93319153 128.38269043 131.76394653 C128.38189484 130.52786148 128.38109924 129.29177643 128.38027954 128.01823425 C128.4526525 125.18608226 128.4526525 125.18608226 127.2532959 123.12698364 C108.7732959 122.79698364 90.2932959 122.46698364 71.2532959 122.12698364 C70.9232959 103.31698364 70.5932959 84.50698364 70.2532959 65.12698364 C45.8332959 65.12698364 21.4132959 65.12698364 -3.7467041 65.12698364 Z M451.2532959 65.12698364 C451.2326709 76.98635864 451.2120459 88.84573364 451.1907959 101.06448364 C451.18169189 104.81428589 451.17258789 108.56408813 451.16320801 112.42752075 C451.15986435 115.77786972 451.15986435 115.77786972 451.15785217 119.1282196 C451.15631282 120.62484534 451.15278806 122.12146982 451.14772034 123.61808777 C451.14044131 125.88010831 451.13938853 128.14205282 451.13977051 130.40408325 C451.1375499 131.68093491 451.13532928 132.95778656 451.13304138 134.27333069 C450.92661501 137.02587219 450.92661501 137.02587219 452.2532959 138.12698364 C454.4259227 138.22654642 456.60182696 138.25498083 458.7767334 138.25637817 C459.45802307 138.25813049 460.13931274 138.25988281 460.84124756 138.26168823 C463.10362257 138.26610606 465.36592003 138.26316902 467.6282959 138.25979614 C469.1938885 138.2604692 470.759481 138.26143924 472.32507324 138.26269531 C475.61040235 138.26417219 478.89570431 138.26201805 482.18103027 138.25735474 C486.40150106 138.25165745 490.62190826 138.25493651 494.84237671 138.2609272 C498.07646162 138.26453309 501.31053134 138.2633941 504.5446167 138.26079941 C506.10121671 138.26013021 507.65781808 138.2609583 509.2144165 138.26327896 C511.38626786 138.26580594 513.55801486 138.26196429 515.7298584 138.25637817 C517.58731689 138.25518478 517.58731689 138.25518478 519.4822998 138.25396729 C522.16184332 138.44310141 522.16184332 138.44310141 523.2532959 137.12698364 C523.34766119 134.88768478 523.37071917 132.64536614 523.36682129 130.40408325 C523.36694182 129.69028535 523.36706236 128.97648745 523.36718655 128.2410593 C523.36643755 125.92045078 523.35880995 123.59992163 523.35095215 121.27932739 C523.34948269 119.85065754 523.348462 118.42198715 523.34790039 116.99331665 C523.34264798 111.68369746 523.32868689 106.37408978 523.3157959 101.06448364 C523.2848584 83.27542114 523.2848584 83.27542114 523.2532959 65.12698364 C499.4932959 65.12698364 475.7332959 65.12698364 451.2532959 65.12698364 Z M376.2532959 140.12698364 C376.2326709 151.98635864 376.2120459 163.84573364 376.1907959 176.06448364 C376.18169189 179.81428589 376.17258789 183.56408813 376.16320801 187.42752075 C376.15986435 190.77786972 376.15986435 190.77786972 376.15785217 194.1282196 C376.15631282 195.62484534 376.15278806 197.12146982 376.14772034 198.61808777 C376.14044131 200.88010831 376.13938853 203.14205282 376.13977051 205.40408325 C376.1375499 206.68093491 376.13532928 207.95778656 376.13304138 209.27333069 C375.92661501 212.02587219 375.92661501 212.02587219 377.2532959 213.12698364 C379.4259227 213.22654642 381.60182696 213.25498083 383.7767334 213.25637817 C384.45802307 213.25813049 385.13931274 213.25988281 385.84124756 213.26168823 C388.10362257 213.26610606 390.36592003 213.26316902 392.6282959 213.25979614 C394.1938885 213.2604692 395.759481 213.26143924 397.32507324 213.26269531 C400.61040235 213.26417219 403.89570431 213.26201805 407.18103027 213.25735474 C411.40150106 213.25165745 415.62190826 213.25493651 419.84237671 213.2609272 C423.07646162 213.26453309 426.31053134 213.2633941 429.5446167 213.26079941 C431.10121671 213.26013021 432.65781808 213.2609583 434.2144165 213.26327896 C436.38626786 213.26580594 438.55801486 213.26196429 440.7298584 213.25637817 C442.58731689 213.25518478 442.58731689 213.25518478 444.4822998 213.25396729 C447.16184332 213.44310141 447.16184332 213.44310141 448.2532959 212.12698364 C448.34766119 209.88768478 448.37071917 207.64536614 448.36682129 205.40408325 C448.36694182 204.69028535 448.36706236 203.97648745 448.36718655 203.2410593 C448.36643755 200.92045078 448.35880995 198.59992163 448.35095215 196.27932739 C448.34948269 194.85065754 448.348462 193.42198715 448.34790039 191.99331665 C448.34264798 186.68369746 448.32868689 181.37408978 448.3157959 176.06448364 C448.2848584 158.27542114 448.2848584 158.27542114 448.2532959 140.12698364 C424.4932959 140.12698364 400.7332959 140.12698364 376.2532959 140.12698364 Z " transform="translate(401.7467041015625,400.8730163574219)"/>
<path fill="#91c733" d="M0 0 C1.61818322 -0.00789489 1.61818322 -0.00789489 3.26905701 -0.01594928 C4.46620452 -0.01155279 5.66335203 -0.00715631 6.89677674 -0.0026266 C8.1644659 -0.00583308 9.43215506 -0.00903955 10.73825905 -0.0123432 C14.28432931 -0.0210198 17.83029466 -0.01711352 21.37636671 -0.01128747 C25.22385937 -0.00713875 29.07133211 -0.01450679 32.91882002 -0.02043998 C39.6710981 -0.02923042 46.42334586 -0.03050405 53.17562824 -0.02693671 C63.21627542 -0.02164597 73.25689308 -0.02770851 83.29753704 -0.03601964 C102.27018531 -0.05129144 121.24282028 -0.05296146 140.21547341 -0.05049662 C154.86214295 -0.0486667 169.50880811 -0.05041721 184.15547711 -0.05472106 C186.25687487 -0.05532345 188.35827262 -0.05592465 190.45967038 -0.05652466 C193.62595083 -0.05743188 196.79223128 -0.05834054 199.95851172 -0.05925701 C229.41181818 -0.06769136 258.86512299 -0.0720189 288.31843048 -0.06785029 C289.42966799 -0.06769392 290.5409055 -0.06753754 291.68581687 -0.06737643 C297.31850329 -0.0665706 302.95118971 -0.06572483 308.58387613 -0.06486312 C309.7026226 -0.06469204 310.82136908 -0.06452095 311.97401697 -0.06434468 C314.23639596 -0.06399802 316.49877495 -0.06364949 318.76115393 -0.06329909 C353.97244841 -0.05794056 389.18371786 -0.06587409 424.39500767 -0.08433264 C463.920139 -0.10502815 503.44525482 -0.11578007 542.97039187 -0.11175716 C547.18118566 -0.11136179 551.39197945 -0.11100025 555.60277325 -0.11065978 C557.15807464 -0.11052368 557.15807464 -0.11052368 558.74479625 -0.11038483 C574.42754776 -0.1092167 590.11028366 -0.1158835 605.79303128 -0.1264717 C623.61933177 -0.13849456 641.44559776 -0.14011641 659.27189874 -0.12768153 C669.25823122 -0.12102807 679.24448135 -0.1227409 689.23080733 -0.13627005 C695.8911769 -0.14446937 702.55148432 -0.14187633 709.21184876 -0.13029478 C713.01349678 -0.12399313 716.81498325 -0.1225526 720.61662238 -0.13415811 C724.70102923 -0.14651291 728.78504389 -0.1359495 732.86944824 -0.12288111 C734.06425459 -0.13019046 735.25906093 -0.13749981 736.49007353 -0.14503065 C738.11201203 -0.13414915 738.11201203 -0.13414915 739.76671696 -0.12304783 C740.70168528 -0.12306829 741.63665361 -0.12308875 742.5999543 -0.12310984 C745.39453442 0.32353011 746.24205508 1.03903252 747.94603306 3.251849 C748.90306431 5.31044275 748.90306431 5.31044275 749.75853306 7.689349 C751.27442993 11.67946835 752.99985545 15.45263579 754.94603306 19.251849 C757.15919355 23.59538342 759.06289516 27.93893117 760.81712681 32.48231775 C763.8785425 39.99284965 767.43195647 47.35139541 771.13353306 54.564349 C772.93908391 58.0989443 774.35077251 61.74470061 775.72337681 65.46669275 C777.50904622 69.53436778 779.78863052 73.36852443 781.94603306 77.251849 C813.62603306 77.581849 845.30603306 77.911849 877.94603306 78.251849 C880.05999596 82.47977479 880.20766763 84.43472428 880.2365604 89.06825525 C880.24663624 90.08361856 880.24663624 90.08361856 880.25691563 91.11949426 C880.275873 93.35118767 880.27981822 95.58258015 880.28197056 97.814349 C880.28839866 99.36846809 880.29512703 100.92258596 880.30214268 102.47670251 C880.31410874 105.7315325 880.31782406 108.98625638 880.31663853 112.24110681 C880.31643505 116.41100876 880.34376934 120.58023138 880.37818295 124.74997216 C880.40041983 127.95846445 880.40447712 131.16679218 880.40341908 134.37535363 C880.40577865 135.91275138 880.4146223 137.45015341 880.43008381 138.98747522 C880.449686 141.13728276 880.44393102 143.28561128 880.4318729 145.43544275 C880.43472294 146.65803796 880.43757298 147.88063318 880.44050938 149.14027673 C879.83031878 152.9799998 879.00916152 153.91273356 875.94603306 156.251849 C872.78699011 156.75242433 872.78699011 156.75242433 868.96486813 156.75324565 C867.90380432 156.76165955 867.90380432 156.76165955 866.82130488 156.77024343 C864.43393615 156.78424211 862.04759057 156.76957825 859.66023594 156.75521356 C857.93088639 156.7593836 856.20154033 156.76530672 854.47220212 156.77283102 C849.68912506 156.7884945 844.90636832 156.77904224 840.12329611 156.76571921 C834.93144457 156.75561792 829.73964406 156.76859389 824.54779965 156.77869254 C815.43821209 156.79317802 806.32871924 156.79267739 797.21912724 156.7825039 C783.67319595 156.76741683 770.12734504 156.77508653 756.58141434 156.78733713 C733.79662783 156.8072126 711.0118876 156.80790402 688.22709996 156.79703027 C687.53281657 156.79669909 686.83853319 156.79636791 686.12321091 156.79602669 C685.08012719 156.79552911 685.08012719 156.79552911 684.01597106 156.79502148 C662.84867197 156.7849373 641.68138826 156.7823192 620.51408726 156.78711206 C619.09779687 156.78742197 617.68150649 156.7877306 616.2652161 156.78803794 C610.57403563 156.78927976 604.88285518 156.79055442 599.19167473 156.79187699 C583.28149638 156.79554541 567.37131798 156.79782753 551.46113926 156.79902154 C550.37428242 156.79910342 550.37428242 156.79910342 549.26546887 156.79918695 C526.17014718 156.80082457 503.07483085 156.79631384 479.97951084 156.78762323 C478.85554643 156.78720173 478.85554643 156.78720173 477.70887566 156.78677172 C465.53981669 156.78219168 453.37075784 156.77731395 441.201699 156.77241103 C392.93482154 156.752985 344.66798845 156.75388663 296.40111119 156.77333337 C284.23825926 156.77821795 272.07540733 156.78306208 259.91255528 156.78762323 C258.78925831 156.78804592 258.78925831 156.78804592 257.64326847 156.78847714 C234.57248723 156.79709912 211.50170967 156.8007595 188.43092686 156.79902154 C187.70688462 156.7989672 186.98284238 156.79891287 186.23685947 156.79885688 C170.34449277 156.79760709 154.45212646 156.79507276 138.55976015 156.79137953 C132.87360271 156.79006291 127.18744526 156.78881059 121.5012878 156.78757669 C120.08666058 156.78726713 118.67203335 156.78695221 117.25740613 156.7866319 C96.09454933 156.78185332 74.93170985 156.78593147 53.76885521 156.79602669 C53.07457182 156.79635787 52.38028844 156.79668905 51.66496617 156.79703027 C50.62545391 156.79752636 50.62545391 156.79752636 49.56494141 156.79803248 C26.215996 156.80905361 2.86709989 156.8050235 -20.48184294 156.78390729 C-33.95396254 156.77212655 -47.42597634 156.77144648 -60.89809329 156.78649199 C-69.88320198 156.79542285 -78.86822538 156.78994982 -87.85332137 156.77247292 C-92.98190884 156.76290564 -98.11028526 156.75981142 -103.23886651 156.77409685 C-107.89715415 156.78694076 -112.55504193 156.78164215 -117.21329996 156.76137421 C-118.89503695 156.75731897 -120.57680645 156.76007912 -122.25851789 156.77019796 C-124.53043893 156.78290656 -126.8009479 156.77126074 -129.07280201 156.75324565 C-130.33410226 156.75297462 -131.59540251 156.75270358 -132.89492399 156.75242433 C-136.63724917 156.15942331 -137.82868708 155.2705605 -140.05396694 152.251849 C-140.54844326 149.14027673 -140.54844326 149.14027673 -140.53980678 145.43544275 C-140.54550182 144.42007943 -140.54550182 144.42007943 -140.55131191 143.38420373 C-140.55870661 141.15211037 -140.5373524 138.92132617 -140.51490444 136.689349 C-140.51251921 135.13523271 -140.51161486 133.58111351 -140.51212734 132.02699548 C-140.5090012 128.77201005 -140.49245109 125.51746567 -140.46558803 122.26259118 C-140.43160828 118.09284866 -140.42395959 113.92359059 -140.4254784 109.75372583 C-140.42493422 106.5452184 -140.41395932 103.33681661 -140.39947551 100.12834436 C-140.39311671 98.59097863 -140.38917077 97.05360094 -140.3876881 95.51622277 C-140.38334523 93.36669345 -140.36582379 91.21767459 -140.34449428 89.06825525 C-140.33305889 87.23436242 -140.33305889 87.23436242 -140.32139248 85.36342126 C-140.05396694 82.251849 -140.05396694 82.251849 -138.05396694 78.251849 C-90.53396694 77.756849 -90.53396694 77.756849 -42.05396694 77.251849 C-35.93749111 66.04034071 -35.93749111 66.04034071 -31.04615444 54.70888025 C-29.87131837 51.79954211 -28.48110956 49.04578244 -27.05396694 46.251849 C-25.20708186 42.63195424 -23.51267798 39.0444977 -22.05396694 35.251849 C-20.18737432 30.39870818 -17.86487915 25.84099182 -15.50318569 21.2127865 C-13.77912577 17.69031366 -12.34100263 14.10158426 -10.92506069 10.4471615 C-6.78069066 0.00260564 -6.78069066 0.00260564 0 0 Z " transform="translate(270.0539669394493,1046.7481510043144)"/>
</svg>
